<?xml version="1.0" encoding="UTF-8"?>
<svg width="52.199mm" height="52.199mm" version="1.1" viewBox="0 0 52.199 52.199" xmlns="http://www.w3.org/2000/svg" xmlns:cc="http://creativecommons.org/ns#" xmlns:dc="http://purl.org/dc/elements/1.1/" xmlns:rdf="http://www.w3.org/1999/02/22-rdf-syntax-ns#">
 <metadata>
  <rdf:RDF>
   <cc:Work rdf:about="">
    <dc:format>image/svg+xml</dc:format>
    <dc:type rdf:resource="http://purl.org/dc/dcmitype/StillImage"/>
    <dc:title/>
   </cc:Work>
  </rdf:RDF>
 </metadata>
 <g transform="translate(-16.494 -140.44)">
  <circle cx="42.594" cy="166.54" r="25.434" fill="#ff569f" stroke="#3b1022" stroke-width="1.332"/>
  <path d="m23.559 161.68c0.56416 0.16255 11.654 0.169 11.654 0.169l10.52-9.2101-0.4263 27.299-9.4111-8.1923-12.284-0.36072z" fill="#55d400" stroke="#fff" stroke-width="1.065"/>
 </g>
 <g fill="none" stroke="#fff">
  <path transform="translate(-16.494 -140.44)" d="m49.079 159.35s6.8896 6.5165-0.11624 14.646c2.0071-1.9669 3.1324-4.6184 3.1324-7.381-5.5e-5 -2.7068-1.0804-5.3092-3.0162-7.2652z" stroke-width="1.0179"/>
  <path transform="translate(-16.494 -140.44)" d="m51.066 155.02s10.87 10.281-0.18339 23.107c3.1666-3.1031 4.9419-7.2863 4.942-11.645-8.7e-5 -4.2704-1.7046-8.3762-4.7586-11.462z" stroke-width="1.6059"/>
 </g>
 <g fill="none" stroke="#fff">
  <path d="m33.925 17.821 11.546 15.641" stroke-width="1.065"/>
  <path d="m45.333 17.764-12.1 16.211" stroke-width=".965"/>
 </g>
</svg>
